<svg width="130" height="130" viewBox="0 0 130 130" fill="none" xmlns="http://www.w3.org/2000/svg">
<path d="M93.1867 108.858L111.867 90.3118L106.223 84.6673L93.1867 97.4346L87.9454 92.1933L82.3009 97.9722L93.1867 108.858ZM32.5756 48.3813H97.0841V37.6299H32.5756V48.3813ZM97.0841 123.641C89.6477 123.641 83.3097 121.02 78.0702 115.777C72.8307 110.533 70.2091 104.195 70.2056 96.7627C70.202 89.3299 72.8235 82.9919 78.0702 77.7488C83.3169 72.5057 89.6549 69.8841 97.0841 69.8841C104.513 69.8841 110.853 72.5057 116.103 77.7488C121.354 82.9919 123.973 89.3299 123.963 96.7627C123.952 104.195 121.33 110.535 116.098 115.782C110.866 121.029 104.528 123.648 97.0841 123.641ZM16.4485 118.265V26.8785C16.4485 23.9218 17.5021 21.3917 19.6094 19.288C21.7167 17.1843 24.2468 16.1307 27.1999 16.1271H102.46C105.416 16.1271 107.948 17.1807 110.056 19.288C112.163 21.3953 113.215 23.9254 113.211 26.8785V62.7613C110.703 61.507 108.081 60.5877 105.347 60.0036C102.612 59.4194 99.858 59.1291 97.0841 59.1327H32.5756V69.8841H70.7431C69.22 71.4073 67.8098 73.0648 66.5124 74.8567C65.2151 76.6486 64.0719 78.5749 63.0827 80.6355H32.5756V91.387H59.8573C59.6781 92.2829 59.567 93.1574 59.524 94.0103C59.481 94.8633 59.4577 95.7807 59.4541 96.7627C59.4541 100.526 59.9702 104.133 61.0023 107.584C62.0345 111.035 63.5791 114.327 65.6362 117.459L64.8298 118.265L56.7663 110.202L48.7027 118.265L40.6392 110.202L32.5756 118.265L24.512 110.202L16.4485 118.265Z" fill="#005C52"/>
</svg>
