<svg width="118" height="118" viewBox="0 0 118 118" fill="none" xmlns="http://www.w3.org/2000/svg">
<g clip-path="url(#clip0_1743_2363)">
<path d="M60.4345 71.0136C57.9142 80.5698 66.2819 91.5033 40.0788 115.42C37.4838 117.788 34.3161 114.408 36.8461 112.006C46.093 103.231 55.7503 92.9668 55.1185 80.2741C54.8683 75.2495 54.9036 65.4946 59.8716 65.0156C68.2545 64.2074 74.7961 95.4267 47.3724 119.529C45.8862 120.836 44.4968 120.867 43.5166 119.712C42.5366 118.558 42.7982 117.251 44.3232 115.929C51.7359 109.497 57.3509 101.828 60.3568 92.4104C63.8972 81.3173 62.0971 73.2783 60.4345 71.0136Z" fill="#005C52"/>
<path d="M87.1107 62.9139C87.5468 64.6457 86.8642 65.9031 85.415 66.2291C83.9226 66.5647 82.8704 65.7771 82.4061 63.7924C76.7554 39.6397 49.8808 30.8163 41.9577 48.1165C39.0853 54.3883 40.0451 58.1644 36.6193 57.5484C35.2482 57.3019 34.5614 56.2784 34.8531 54.9852C36.4408 47.9408 38.705 41.2648 45.3941 37.2381C58.7968 29.1697 80.921 38.3326 87.1107 62.9139Z" fill="#005C52"/>
<path d="M82.0197 80.5686C81.6289 98.5847 76.2382 109.524 67.3138 118.969C64.9229 121.5 61.1667 118.464 64.0148 115.601C68.5808 111.01 72.0642 105.698 74.0659 99.5594C77.7737 88.1891 78.9225 76.6907 74.5316 65.2118C70.1807 53.8374 65.004 53.639 67.9767 50.8085C70.5094 48.397 73.1754 52.8929 75.0497 55.8419C79.848 63.3907 82.1491 71.6297 82.0197 80.5686Z" fill="#005C52"/>
<path d="M65.4128 47.4299C65.4531 49.4875 63.9676 50.5846 62.2756 50.0066C59.9152 49.2003 57.5419 48.7135 55.0745 49.3535C38.9135 53.5456 54.1479 77.6752 28.7864 100.794C26.4931 102.884 22.8686 99.9585 25.6824 97.2563C29.768 93.3327 33.433 89.1009 36.0402 84.0099C38.8826 78.4597 39.8932 72.4407 40.8068 66.3786C41.4533 62.0898 41.7948 57.7288 43.5482 53.679C46.9516 45.8168 55.7317 42.2477 63.6297 45.4997C64.6786 45.9315 65.3748 46.6075 65.4128 47.4299Z" fill="#005C52"/>
<path d="M19.1052 71.7347C24.1031 66.4263 24.4329 59.5721 25.7158 52.9975C27.9101 41.7507 31.8945 32.7305 42.6909 27.748C44.4622 26.9307 45.8524 27.2828 46.4648 28.6659C47.0462 29.9788 46.49 31.1402 44.751 31.9495C36.3975 35.8382 32.7049 43.0074 30.8315 51.5142C29.8701 55.8793 29.4731 60.3518 28.2649 64.6672C27.2756 68.201 25.6491 71.3868 23.1675 74.1151C20.3267 77.2377 17.5104 73.4285 19.1052 71.7347Z" fill="#005C52"/>
<path d="M74.3908 82.7289C74.3019 84.6976 73.3764 85.7385 71.8693 85.6336C66.7838 85.2792 73.54 75.6309 64.2087 62.4444C62.0954 59.4579 58.8095 57.9213 56.114 60.9073C50.8646 66.7225 54.7869 74.8571 50.1059 74.5998C48.7212 74.5237 47.8953 73.653 47.9368 72.3399C48.6101 51.0496 65.6297 47.3748 72.8154 69.1193C74.1977 73.3032 74.5896 78.3317 74.3908 82.7289Z" fill="#005C52"/>
<path d="M75.6075 19.3516C77.3428 20.1472 77.9253 21.3052 77.3625 22.6357C76.7582 24.064 75.4231 24.4317 73.645 23.6413C58.7726 17.0306 46.5334 19.0048 34.9974 27.8069C33.7991 28.7214 32.5818 28.7841 31.5766 27.6035C30.5554 26.404 30.8488 25.1727 31.9761 24.204C42.6986 14.989 58.6149 11.5611 75.6075 19.3516Z" fill="#005C52"/>
<path d="M97.1129 91.1224C96.8613 92.635 96.0568 93.4528 94.5121 93.3454C93.1166 93.2483 92.3299 92.0946 92.5352 90.4027C94.4432 74.678 94.0604 68.3623 87.763 51.23C87.1129 49.4615 87.4315 48.2122 88.8521 47.6905C90.8721 46.9488 91.8743 48.3991 92.5551 50.461C96.9482 63.7643 100.291 72.0159 97.1129 91.1224Z" fill="#005C52"/>
<path d="M52.9363 29.5631C50.7099 29.8893 49.4222 29.2371 49.2245 27.6549C48.3675 20.7917 77.5599 25.223 87.7997 41.5531C88.601 42.8311 88.5186 44.0633 87.2779 44.9592C83.7008 47.5416 83.9258 40.6001 73.4145 34.702C67.5284 31.3994 59.616 28.5842 52.9363 29.5631Z" fill="#005C52"/>
<path d="M100.929 56.1818C99.5273 56.4741 98.5262 55.8785 98.1386 54.4598C91.5217 30.2398 80.1686 29.2662 79.6146 26.1567C79.2584 24.1573 81.2104 22.3432 83.6082 23.942C94.1994 31.0035 99.371 40.5117 102.546 52.6668C102.97 54.2894 102.612 55.8311 100.929 56.1818Z" fill="#005C52"/>
<path d="M85.496 105.15C84.9806 106.517 83.9692 107.242 82.4619 106.78C78.432 105.545 83.5784 100.436 85.0306 88.8169C85.9017 81.8469 84.2182 73.2778 84.1745 72.7463C83.8691 69.0314 88.4079 68.7789 88.8772 72.0678C90.4652 83.196 91.3456 89.6352 85.496 105.15Z" fill="#005C52"/>
<path d="M53.2463 117.915C60.6639 110.651 65.5259 101.616 68.3332 91.4478C68.8191 89.6881 69.9773 88.8201 71.3362 89.3142C72.8422 89.8617 73.2859 90.9906 72.8749 92.555C69.9991 103.497 64.7887 113.114 56.721 121.115C54.0192 123.794 50.7952 120.315 53.2463 117.915Z" fill="#005C52"/>
<path d="M64.2569 5.82009C75.3035 7.38653 85.3403 11.8687 93.4877 20.2287C94.5564 21.3253 94.6226 22.5412 93.6554 23.6809C89.9068 28.0993 87.2719 13.7276 63.3616 10.5036C61.8662 10.302 60.9861 9.52039 61.009 7.98328C61.0296 6.5914 62.238 5.71632 64.2569 5.82009Z" fill="#005C52"/>
<path d="M51.508 80.9577C50.2749 92.5592 42.7004 99.6963 34.3764 108.862C33.3215 110.024 32.1245 110.354 30.8257 109.317C26.2281 105.646 44.7124 96.9101 46.7798 80.8723C47.0098 79.0878 47.7426 77.9405 49.5276 78.168C51.0858 78.3666 51.6441 79.4538 51.508 80.9577Z" fill="#005C52"/>
<path d="M14.6094 59.4153C16.8159 50.4272 17.9349 40.7379 23.8396 32.6972C25.5646 30.3482 27.3771 28.0918 29.3772 30.1483C30.3248 31.1225 30.3608 32.3165 29.4527 33.2951C23.8887 39.2899 22.278 46.9205 20.559 54.516C20.0866 56.6027 19.6393 58.699 19.0542 60.7547C18.6888 62.0387 17.6573 62.6627 16.3456 62.3443C15.0632 62.0328 14.4268 61.0986 14.6094 59.4153Z" fill="#005C52"/>
<path d="M19.8965 88.5148C19.4798 87.5105 19.7522 86.5683 20.5783 85.8577C21.5051 85.0603 22.5224 84.3651 23.4223 83.5404C30.2832 77.252 31.4542 67.5764 32.8039 63.215C33.7874 60.0374 38.0716 61.482 37.4157 64.2733C36.044 70.1116 34.5759 75.9311 31.4279 81.1376C28.8086 85.4701 21.8272 93.1683 19.8965 88.5148Z" fill="#005C52"/>
<path d="M58.3664 8.1336C58.1751 9.78892 57.0435 10.3573 55.445 10.3941C47.4561 10.579 39.4416 13.6296 32.6551 18.5186C31.003 19.7089 29.7431 19.6732 28.7917 18.4511C27.8463 17.2367 28.187 15.922 29.8143 14.754C37.4976 9.23913 45.9561 5.90558 55.5103 5.70949C57.3379 5.67215 58.3969 6.5754 58.3664 8.1336Z" fill="#005C52"/>
<circle cx="95.406" cy="95.4061" r="14.8798" fill="#005C52"/>
<path d="M102.873 88.1991L93.0653 98.0067L89.7713 94.2814C88.8598 93.2503 87.2265 93.2352 86.3001 94.3254C85.5563 95.2007 85.6257 96.5094 86.3867 97.3701L91.2466 102.866C91.6654 103.34 92.261 103.619 92.8925 103.639C92.9161 103.639 92.9395 103.64 92.9629 103.64C93.5692 103.64 94.1522 103.399 94.5824 102.969L106.062 91.4887C106.874 90.6771 107.024 89.3759 106.336 88.4571C105.479 87.3121 103.847 87.2258 102.873 88.1991Z" fill="white"/>
</g>
<defs>
<clipPath id="clip0_1743_2363">
<rect width="117.288" height="117.288" fill="white"/>
</clipPath>
</defs>
</svg>
