<svg width="131" height="123" viewBox="0 0 131 123" fill="none" xmlns="http://www.w3.org/2000/svg">
<path d="M109.617 0H34.7137C23.451 0 14.2855 9.16545 14.2855 20.4282V27.2376H7.47615C5.67018 27.2376 3.93818 27.955 2.66117 29.232C1.38416 30.509 0.666748 32.241 0.666748 34.047C0.666748 35.853 1.38416 37.585 2.66117 38.862C3.93818 40.139 5.67018 40.8564 7.47615 40.8564H14.2855V54.4752H7.47615C5.67018 54.4752 3.93818 55.1926 2.66117 56.4696C1.38416 57.7466 0.666748 59.4786 0.666748 61.2846C0.666748 63.0906 1.38416 64.8225 2.66117 66.0996C3.93818 67.3766 5.67018 68.094 7.47615 68.094H14.2855V81.7128H7.47615C5.67018 81.7128 3.93818 82.4302 2.66117 83.7072C1.38416 84.9842 0.666748 86.7162 0.666748 88.5222C0.666748 90.3281 1.38416 92.0601 2.66117 93.3372C3.93818 94.6142 5.67018 95.3316 7.47615 95.3316H14.2855V102.141C14.2855 113.404 23.451 122.569 34.7137 122.569H109.617C120.88 122.569 130.045 113.404 130.045 102.141V20.4282C130.045 9.16545 120.88 0 109.617 0ZM27.9043 20.4282C27.9043 16.6762 30.9618 13.6188 34.7137 13.6188V27.2376H27.9043V20.4282ZM27.9043 40.8564H34.7137V54.4752H27.9043V40.8564ZM27.9043 68.094H34.7137V81.7128H27.9043V68.094ZM27.9043 102.141V95.3316H34.7137V108.95C30.9618 108.95 27.9043 105.893 27.9043 102.141ZM116.427 102.141C116.427 105.893 113.369 108.95 109.617 108.95H41.5231V13.6188H109.617C113.369 13.6188 116.427 16.6762 116.427 20.4282V102.141Z" fill="#005C52"/>
<path d="M75.57 64.6895C83.0914 64.6895 89.1888 58.5922 89.1888 51.0707C89.1888 43.5492 83.0914 37.4519 75.57 37.4519C68.0485 37.4519 61.9512 43.5492 61.9512 51.0707C61.9512 58.5922 68.0485 64.6895 75.57 64.6895Z" fill="#005C52"/>
<path d="M75.5699 70.5182C64.9336 70.5182 58.5464 75.387 58.5464 80.2489C58.5464 82.6798 64.9336 85.1176 75.5699 85.1176C85.5525 85.1176 92.5934 82.6866 92.5934 80.2489C92.5934 75.387 85.9202 70.5182 75.5699 70.5182Z" fill="#005C52"/>
</svg>
